<?xml version="1.0" standalone="no"?>
<!DOCTYPE svg PUBLIC "-//W3C//DTD SVG 20010904//EN"
 "http://www.w3.org/TR/2001/REC-SVG-20010904/DTD/svg10.dtd">
<svg version="1.0" xmlns="http://www.w3.org/2000/svg"
 width="1668.000000pt" height="1668.000000pt" viewBox="0 0 1668.000000 1668.000000"
 preserveAspectRatio="xMidYMid meet">

<g transform="translate(0.000000,1668.000000) scale(0.100000,-0.100000)"
fill="#000000" stroke="none">
<path d="M4580 10959 l0 -1301 70 66 c259 244 567 410 951 510 306 81 476 96
1075 96 l455 0 -4 -1707 c-3 -1691 -3 -1710 -25 -1858 -80 -555 -238 -1003
-458 -1294 l-53 -71 1751 0 c1399 0 1748 3 1741 13 -248 314 -427 797 -497
1342 -33 256 -36 416 -36 1993 l0 1584 538 -5 c491 -4 549 -6 677 -26 524 -83
941 -269 1242 -555 l93 -88 0 1301 0 1301 -3760 0 -3760 0 0 -1301z"/>
</g>
</svg>
